REM DIRINDEX 1\2\4,1\2\5,1\2\6,1\3\7,1\3\8,1\3\9,1\3\10
REM DIRNAME cjc057,folder01,folder02,folder03,folder04,folder05,folder06,folder07,folder08,folder09
TITLE ""
FILE "b_206.mp3" MP3
  TRACK 01 AUDIO
    TITLE "0:"
    INDEX 01 00:00:00
  TRACK 02 AUDIO
    TITLE "7:cjc057_10381"
    INDEX 01 00:00:11
  TRACK 03 AUDIO
    TITLE "0:"
    INDEX 01 00:01:50
  TRACK 04 AUDIO
    TITLE "8:cjc057_10382"
    INDEX 01 00:02:06
  TRACK 05 AUDIO
    TITLE "0:"
    INDEX 01 00:04:52
  TRACK 06 AUDIO
    TITLE "9:cjc057_10383"
    INDEX 01 00:05:20
  TRACK 07 AUDIO
    TITLE "0:"
    INDEX 01 00:08:42
  TRACK 08 AUDIO
    TITLE "7:cjc057_10384"
    INDEX 01 00:09:49
  TRACK 09 AUDIO
    TITLE "0:"
    INDEX 01 00:10:59
  TRACK 10 AUDIO
    TITLE "8:cjc057_10385"
    INDEX 01 00:11:19
  TRACK 11 AUDIO
    TITLE "0:"
    INDEX 01 00:12:67
  TRACK 12 AUDIO
    TITLE "9:cjc057_10386"
    INDEX 01 00:13:35
  TRACK 13 AUDIO
    TITLE "0:"
    INDEX 01 00:16:14
  TRACK 14 AUDIO
    TITLE "7:cjc057_10387"
    INDEX 01 00:17:20
  TRACK 15 AUDIO
    TITLE "0:"
    INDEX 01 00:18:35
  TRACK 16 AUDIO
    TITLE "8:cjc057_10388"
    INDEX 01 00:18:66
  TRACK 17 AUDIO
    TITLE "0:"
    INDEX 01 00:20:49
  TRACK 18 AUDIO
    TITLE "9:cjc057_10389"
    INDEX 01 00:21:19
  TRACK 19 AUDIO
    TITLE "0:"
    INDEX 01 00:24:29
  TRACK 20 AUDIO
    TITLE "7:cjc057_10390"
    INDEX 01 00:25:35
  TRACK 21 AUDIO
    TITLE "0:"
    INDEX 01 00:26:50
  TRACK 22 AUDIO
    TITLE "8:cjc057_10391"
    INDEX 01 00:27:10
  TRACK 23 AUDIO
    TITLE "0:"
    INDEX 01 00:30:28
  TRACK 24 AUDIO
    TITLE "9:cjc057_10392"
    INDEX 01 00:30:73
  TRACK 25 AUDIO
    TITLE "0:"
    INDEX 01 00:35:15
  TRACK 26 AUDIO
    TITLE "7:cjc057_10393"
    INDEX 01 00:36:23
  TRACK 27 AUDIO
    TITLE "0:"
    INDEX 01 00:37:40
  TRACK 28 AUDIO
    TITLE "8:cjc057_10394"
    INDEX 01 00:38:00
  TRACK 29 AUDIO
    TITLE "0:"
    INDEX 01 00:40:32
  TRACK 30 AUDIO
    TITLE "9:cjc057_10395"
    INDEX 01 00:41:02
  TRACK 31 AUDIO
    TITLE "0:"
    INDEX 01 00:44:16
  TRACK 32 AUDIO
    TITLE "7:cjc057_10396"
    INDEX 01 00:45:22
  TRACK 33 AUDIO
    TITLE "0:"
    INDEX 01 00:46:21
  TRACK 34 AUDIO
    TITLE "8:cjc057_10397"
    INDEX 01 00:46:54
  TRACK 35 AUDIO
    TITLE "0:"
    INDEX 01 00:48:00
  TRACK 36 AUDIO
    TITLE "9:cjc057_10398"
    INDEX 01 00:48:46
  TRACK 37 AUDIO
    TITLE "0:"
    INDEX 01 00:52:00
  TRACK 38 AUDIO
    TITLE "7:cjc057_10399"
    INDEX 01 00:53:08
  TRACK 39 AUDIO
    TITLE "0:"
    INDEX 01 00:54:50
  TRACK 40 AUDIO
    TITLE "8:cjc057_10400"
    INDEX 01 00:55:04
  TRACK 41 AUDIO
    TITLE "0:"
    INDEX 01 00:57:56
  TRACK 42 AUDIO
    TITLE "9:cjc057_10401"
    INDEX 01 00:58:24
  TRACK 43 AUDIO
    TITLE "0:"
    INDEX 01 01:01:38
  TRACK 44 AUDIO
    TITLE "7:cjc057_10402"
    INDEX 01 01:02:46
  TRACK 45 AUDIO
    TITLE "0:"
    INDEX 01 01:03:65
  TRACK 46 AUDIO
    TITLE "8:cjc057_10403"
    INDEX 01 01:04:25
  TRACK 47 AUDIO
    TITLE "0:"
    INDEX 01 01:06:73
  TRACK 48 AUDIO
    TITLE "9:cjc057_10404"
    INDEX 01 01:07:45
  TRACK 49 AUDIO
    TITLE "0:"
    INDEX 01 01:12:13
  TRACK 50 AUDIO
    TITLE "7:cjc057_10405"
    INDEX 01 01:13:20
  TRACK 51 AUDIO
    TITLE "0:"
    INDEX 01 01:14:43
  TRACK 52 AUDIO
    TITLE "8:cjc057_10406"
    INDEX 01 01:14:70
  TRACK 53 AUDIO
    TITLE "0:"
    INDEX 01 01:16:36
  TRACK 54 AUDIO
    TITLE "9:cjc057_10407"
    INDEX 01 01:17:04
  TRACK 55 AUDIO
    TITLE "0:"
    INDEX 01 01:20:24
  TRACK 56 AUDIO
    TITLE "7:cjc057_10408"
    INDEX 01 01:21:29
  TRACK 57 AUDIO
    TITLE "0:"
    INDEX 01 01:22:68
  TRACK 58 AUDIO
    TITLE "8:cjc057_10409"
    INDEX 01 01:23:26
  TRACK 59 AUDIO
    TITLE "0:"
    INDEX 01 01:25:70
  TRACK 60 AUDIO
    TITLE "9:cjc057_10410"
    INDEX 01 01:26:40
  TRACK 61 AUDIO
    TITLE "0:"
    INDEX 01 01:30:22
